<svg xmlns="http://www.w3.org/2000/svg" width="120" height="40" viewBox="0 0 120 40">
  <defs>
    <linearGradient id="grad1" x1="0%" y1="0%" x2="100%" y2="0%">
      <stop offset="0%" style="stop-color:#f59e0b;stop-opacity:1" />
      <stop offset="100%" style="stop-color:#d97706;stop-opacity:1" />
    </linearGradient>
  </defs>

  <!-- Background circle -->
  <circle cx="20" cy="20" r="18" fill="url(#grad1)"/>

  <!-- Noodle icon -->
  <path d="M8 12 Q20 8, 32 12 Q20 16, 8 12" fill="#ffffff" opacity="0.9"/>
  <path d="M8 16 Q20 12, 32 16 Q20 20, 8 16" fill="#ffffff" opacity="0.7"/>
  <path d="M8 20 Q20 16, 32 20 Q20 24, 8 20" fill="#ffffff" opacity="0.9"/>
  <path d="M8 24 Q20 20, 32 24 Q20 28, 8 24" fill="#ffffff" opacity="0.7"/>

  <!-- Spicy indicator -->
  <circle cx="30" cy="12" r="2" fill="#ef4444"/>
  <circle cx="28" cy="15" r="1.5" fill="#f87171"/>
  <circle cx="32" cy="18" r="1" fill="#fca5a5"/>

  <!-- Text -->
  <text x="45" y="15" font-family="Arial, sans-serif" font-size="12" font-weight="bold" fill="#d97706">Mie Ikan</text>
  <text x="45" y="28" font-family="Arial, sans-serif" font-size="12" font-weight="bold" fill="#f59e0b">Laut Pedas</text>
</svg>
